<svg width="155" height="40" viewBox="0 0 155 40" fill="none" xmlns="http://www.w3.org/2000/svg">
<path d="M29.0148 0C13.4754 0 0.890381 8.26849 0.890381 18.3979C0.890381 18.6665 0.890381 19.3763 0.890381 19.4722C0.890381 30.2155 11.9023 38.9252 29.0148 38.9252C46.2424 38.9252 57.1392 30.2155 57.1392 19.4722C57.1392 19.0885 57.1392 18.8775 57.1392 18.3979C57.12 8.26849 44.535 0 29.0148 0ZM29.0148 35.6831C14.0893 35.6831 1.98389 27.9325 1.98389 18.3787C1.98389 8.82484 14.0893 1.09351 29.0148 1.09351C43.9403 1.09351 56.0456 8.84403 56.0456 18.3979C56.0456 27.9325 43.9403 35.6831 29.0148 35.6831Z" fill="white"/>
<path d="M44.0554 20.2012C41.3888 17.8799 35.2306 12.5083 33.5615 11.2613C32.6023 10.5515 31.95 10.1678 31.3937 9.99511C31.1443 9.91838 30.7798 9.82245 30.3194 9.82245C29.8973 9.82245 29.4369 9.89919 28.9573 10.0527C27.8829 10.398 26.8086 11.2421 25.7727 12.067L25.7151 12.1054C24.7367 12.8728 23.7391 13.6785 22.9909 13.832C22.6648 13.9087 22.3195 13.9471 21.9741 13.9471C21.13 13.9471 20.3626 13.6977 20.0749 13.3332C20.0365 13.2757 20.0557 13.1797 20.1708 13.0263L20.19 13.0071L22.5305 10.4747C24.3722 8.63302 26.0988 6.90642 30.1083 6.8105C30.1659 6.8105 30.2426 6.8105 30.3002 6.8105C32.7942 6.8105 35.269 7.92319 35.5567 8.05748C37.8972 9.18937 40.2953 9.7649 42.7125 9.78408C45.2257 9.78408 47.8348 9.17018 50.5781 7.90401C50.2712 7.65461 49.9642 7.40521 49.6189 7.15582C47.2209 8.19178 44.9187 8.72894 42.7125 8.72894C40.4488 8.72894 38.2042 8.19178 36.0172 7.11745C35.902 7.05989 33.1587 5.77454 30.3002 5.77454C30.2234 5.77454 30.1467 5.77454 30.07 5.77454C26.7127 5.85127 24.8326 7.04071 23.5473 8.09585C22.3195 8.13422 21.2451 8.42199 20.2859 8.69057C19.4418 8.92078 18.7128 9.13181 18.003 9.13181C17.7152 9.13181 17.178 9.11263 17.1397 9.11263C16.3147 9.09344 12.1901 8.07667 8.89035 6.82968C8.54503 7.05989 8.23808 7.30929 7.91194 7.55869C11.346 8.95915 15.5282 10.0527 16.8519 10.1486C17.2164 10.1678 17.6193 10.2061 18.003 10.2061C18.8663 10.2061 19.7487 9.95674 20.5929 9.72653C21.0917 9.59224 21.648 9.43876 22.2235 9.32366C22.0701 9.47713 21.9166 9.63061 21.7631 9.78408L19.3651 12.3356C19.1732 12.5275 18.7703 13.0263 19.0389 13.6593C19.154 13.9087 19.3651 14.1581 19.672 14.35C20.2475 14.7337 21.2643 14.9831 22.2043 14.9831C22.5689 14.9831 22.895 14.9447 23.2211 14.868C24.2187 14.6377 25.2739 13.8128 26.3866 12.9303C27.269 12.2205 28.5352 11.338 29.4944 11.0694C29.763 10.9927 30.0892 10.9543 30.3577 10.9543C30.4345 10.9543 30.5112 10.9543 30.588 10.9735C31.221 11.0503 31.8349 11.2613 32.9285 12.0862C34.8853 13.5634 43.5374 21.1413 43.6334 21.1988C43.6334 21.1988 44.1897 21.6784 44.1514 22.465C44.1322 22.9062 43.8828 23.2899 43.4607 23.5777C43.0962 23.8079 42.7125 23.923 42.3288 23.923C41.7533 23.923 41.3504 23.6544 41.3312 23.6353C41.2929 23.6161 38.3385 20.8919 37.245 19.971C37.0723 19.8175 36.8996 19.7024 36.727 19.7024C36.6311 19.7024 36.5543 19.7408 36.4968 19.8175C36.3241 20.0286 36.5159 20.3163 36.7462 20.5082L40.2185 23.9998C40.2185 23.9998 40.6598 24.4026 40.6982 24.9398C40.7173 25.5153 40.4488 25.9949 39.8732 26.3786C39.4703 26.6472 39.0483 26.7815 38.6454 26.7815C38.1083 26.7815 37.7437 26.5321 37.6478 26.4745L37.149 25.9758C36.2474 25.0741 35.3073 24.1532 34.6167 23.5777C34.444 23.4434 34.2714 23.3091 34.0987 23.3091C34.022 23.3091 33.9452 23.3475 33.8877 23.405C33.8109 23.501 33.7534 23.6544 33.9452 23.9038C34.022 24.0189 34.1179 24.0957 34.1179 24.0957L36.6502 26.935C36.6694 26.9542 37.1682 27.5489 36.7078 28.1436L36.6119 28.2587C36.5351 28.3354 36.4584 28.4122 36.3817 28.4889C35.9596 28.8342 35.3649 28.8726 35.1539 28.8726C35.0387 28.8726 34.9236 28.8534 34.8085 28.8342C34.5591 28.7959 34.3865 28.7191 34.3097 28.6232L34.2714 28.5848C34.1371 28.4505 32.8517 27.146 31.7966 26.2635C31.6623 26.1484 31.4896 25.9949 31.2978 25.9949C31.2019 25.9949 31.1251 26.0333 31.0676 26.0909C30.8565 26.3211 31.1635 26.6664 31.2978 26.7815L33.4464 29.1604C33.4464 29.1796 33.4081 29.2371 33.3697 29.3138C33.293 29.429 33.0244 29.6783 32.257 29.7743C32.1611 29.7935 32.0652 29.7935 31.9692 29.7935C31.1635 29.7935 30.3002 29.4098 29.8589 29.1604C30.07 28.7383 30.1659 28.2587 30.1659 27.7983C30.1659 26.0141 28.7271 24.5753 26.9429 24.5753C26.9045 24.5753 26.8662 24.5753 26.8278 24.5753C26.8854 23.7695 26.7702 22.2348 25.1971 21.5633C24.7367 21.3715 24.2955 21.2756 23.8542 21.2756C23.5089 21.2756 23.1828 21.3331 22.8758 21.4482C22.5497 20.8151 22.0125 20.3547 21.3027 20.1053C20.919 19.971 20.5161 19.8943 20.1516 19.8943C19.4993 19.8943 18.8854 20.0861 18.3483 20.4698C17.8303 19.8367 17.0437 19.453 16.238 19.453C15.5282 19.453 14.8375 19.7408 14.3195 20.2396C13.6481 19.7216 10.9815 18.0334 3.86403 16.4219C3.51871 16.3452 2.73214 16.115 2.23335 15.9807C2.15661 16.3643 2.09906 16.748 2.0415 17.1509C2.0415 17.1509 3.36523 17.4579 3.61463 17.5154C10.9047 19.1269 13.3028 20.8151 13.7056 21.1413C13.5714 21.4674 13.4946 21.8319 13.4946 22.1964C13.4946 23.6928 14.7224 24.9206 16.2188 24.9206C16.3915 24.9206 16.5641 24.9014 16.7176 24.8822C16.9478 25.9949 17.6768 26.8199 18.7703 27.2611C19.0965 27.3762 19.4226 27.453 19.7487 27.453C19.9598 27.453 20.1708 27.4338 20.3626 27.3762C20.5737 27.8942 21.0341 28.5465 22.0509 28.9685C22.4154 29.122 22.7799 29.1987 23.1252 29.1987C23.413 29.1987 23.7007 29.1412 23.9501 29.0453C24.4489 30.2539 25.6192 31.0404 26.9237 31.0404C27.787 31.0404 28.6311 30.6951 29.2259 30.062C29.7438 30.3498 30.8373 30.8678 31.95 30.8678C32.0843 30.8678 32.2186 30.8486 32.3721 30.8486C33.4656 30.7143 33.9836 30.2731 34.2138 29.9469C34.2522 29.8894 34.2906 29.8318 34.3289 29.7551C34.5975 29.8318 34.8661 29.8894 35.1922 29.8894C35.7869 29.8894 36.3625 29.6783 36.9572 29.2563C37.5327 28.8342 37.9356 28.2587 37.9931 27.7407V27.7215C38.185 27.7599 38.3768 27.7791 38.5879 27.7791C39.2018 27.7791 39.8157 27.5872 40.3912 27.2036C41.5039 26.4745 41.7149 25.5153 41.6957 24.8822C41.8876 24.9206 42.0986 24.9398 42.2905 24.9398C42.866 24.9398 43.4415 24.7671 43.9787 24.4218C44.6693 23.9806 45.0914 23.2899 45.1489 22.5034C45.1873 21.9662 45.053 21.429 44.7844 20.9494C46.6645 20.1437 50.9618 18.5706 56.0265 17.4387C55.9881 17.055 55.9306 16.6521 55.873 16.2684C49.7532 17.7073 45.1873 19.6833 44.0554 20.2012ZM26.9429 30.0812C25.7535 30.0812 24.7943 29.1604 24.7367 27.9709C24.7367 27.875 24.7175 27.6064 24.4873 27.6064C24.3914 27.6064 24.3146 27.664 24.2187 27.7407C23.9501 27.9901 23.624 28.2203 23.1444 28.2203C22.9334 28.2203 22.684 28.1628 22.4346 28.0669C21.1876 27.5681 21.1684 26.7048 21.2068 26.3594C21.2259 26.2635 21.2259 26.1676 21.1684 26.0909L21.0917 26.0141H21.0149C20.9574 26.0141 20.8806 26.0333 20.8039 26.11C20.4394 26.3594 20.0941 26.4937 19.7296 26.4937C19.5377 26.4937 19.3267 26.4554 19.1348 26.3786C17.485 25.7264 17.6193 24.1724 17.696 23.712C17.7152 23.6161 17.6768 23.5393 17.6193 23.501L17.5042 23.405L17.3891 23.501C17.0629 23.8079 16.6409 23.9806 16.1996 23.9806C15.2596 23.9806 14.4922 23.2132 14.4922 22.2732C14.4922 21.3331 15.2596 20.5657 16.2188 20.5657C17.0821 20.5657 17.8111 21.218 17.907 22.0621L17.9646 22.5226L18.214 22.1389C18.2332 22.1005 18.943 21.0454 20.2092 21.0454C20.4586 21.0454 20.708 21.0837 20.9574 21.1605C21.9741 21.4674 22.1468 22.3883 22.166 22.7719C22.1852 23.0022 22.3386 23.0022 22.377 23.0022C22.4729 23.0022 22.5305 22.9446 22.5689 22.9062C22.7607 22.7144 23.1828 22.3691 23.835 22.3691C24.142 22.3691 24.4489 22.4458 24.7751 22.5801C26.3866 23.2707 25.6576 25.3235 25.6576 25.3427C25.5233 25.688 25.5041 25.8415 25.6384 25.9182L25.6959 25.9566H25.7343C25.811 25.9566 25.9069 25.9182 26.0412 25.8798C26.2523 25.8031 26.5976 25.688 26.9045 25.688C28.1132 25.7072 29.1108 26.6856 29.1108 27.8942C29.1299 29.1028 28.1515 30.0812 26.9429 30.0812Z" fill="white"/>
<path d="M152.927 6.6762C151.91 5.41003 150.376 4.77694 148.304 4.77694C146.232 4.77694 144.697 5.41003 143.68 6.6762C142.663 7.94237 142.165 9.45794 142.165 11.1845C142.165 12.9495 142.663 14.4651 143.68 15.7121C144.697 16.9591 146.232 17.5921 148.304 17.5921C150.376 17.5921 151.91 16.9591 152.927 15.7121C153.944 14.4651 154.443 12.9495 154.443 11.1845C154.462 9.43876 153.944 7.94237 152.927 6.6762ZM150.414 13.9663C149.915 14.6186 149.224 14.9447 148.304 14.9447C147.383 14.9447 146.673 14.6186 146.174 13.9663C145.675 13.314 145.426 12.374 145.426 11.1845C145.426 9.97592 145.675 9.05507 146.174 8.4028C146.673 7.75053 147.383 7.42439 148.304 7.42439C149.224 7.42439 149.934 7.75053 150.414 8.4028C150.913 9.05507 151.162 9.97592 151.162 11.1845C151.162 12.3932 150.913 13.314 150.414 13.9663Z" fill="white"/>
<path d="M126.99 5.60187C125.954 5.08389 124.783 4.81531 123.46 4.81531C121.426 4.81531 119.987 5.35247 119.143 6.40762C118.625 7.07907 118.318 7.96156 118.261 9.0167H121.311C121.388 8.55627 121.541 8.19177 121.752 7.904C122.059 7.5395 122.596 7.34765 123.364 7.34765C124.035 7.34765 124.553 7.44358 124.899 7.63542C125.244 7.82727 125.417 8.17259 125.417 8.6522C125.417 9.05507 125.186 9.36202 124.745 9.55386C124.496 9.66897 124.074 9.76489 123.479 9.82245L122.405 9.95674C121.177 10.1102 120.256 10.3788 119.623 10.7241C118.472 11.3956 117.896 12.4699 117.896 13.9471C117.896 15.0982 118.261 15.9807 118.971 16.5946C119.68 17.2085 120.601 17.477 121.695 17.5346C128.582 17.8415 128.505 13.9087 128.563 13.0838V8.57546C128.544 7.11744 128.026 6.13903 126.99 5.60187ZM125.397 12.4891C125.378 13.5442 125.071 14.2732 124.496 14.6761C123.92 15.079 123.287 15.2708 122.596 15.2708C122.155 15.2708 121.791 15.1557 121.484 14.9063C121.177 14.6761 121.023 14.2732 121.023 13.7361C121.023 13.1222 121.273 12.6809 121.771 12.3932C122.059 12.2205 122.558 12.0862 123.23 11.9711L123.939 11.8368C124.304 11.7601 124.572 11.7025 124.783 11.6258C124.994 11.549 125.186 11.4531 125.397 11.3188V12.4891Z" fill="white"/>
<path d="M111.297 7.52031C112.083 7.52031 112.659 7.76971 113.043 8.24932C113.292 8.61383 113.465 9.0167 113.522 9.45794H116.918C116.726 7.75053 116.131 6.54191 115.114 5.87045C114.098 5.199 112.793 4.85368 111.201 4.85368C109.321 4.85368 107.863 5.42921 106.808 6.58028C105.752 7.73134 105.215 9.32365 105.215 11.3956C105.215 13.2181 105.695 14.7145 106.654 15.8655C107.613 17.0166 109.11 17.5921 111.162 17.5921C113.196 17.5921 114.75 16.9015 115.786 15.5202C116.438 14.6761 116.803 13.7553 116.879 12.8152H113.503C113.426 13.4483 113.234 13.9663 112.908 14.3692C112.582 14.772 112.026 14.9639 111.258 14.9639C110.165 14.9639 109.417 14.4651 109.014 13.4675C108.803 12.9303 108.688 12.2205 108.688 11.338C108.688 10.4172 108.803 9.66897 109.014 9.11262C109.417 8.05748 110.184 7.52031 111.297 7.52031Z" fill="white"/>
<path d="M104.294 4.87286C97.3113 4.87286 97.7334 11.0503 97.7334 11.0503V17.3236H100.899V11.4339C100.899 10.4747 101.014 9.76489 101.263 9.28528C101.705 8.46035 102.549 8.05748 103.815 8.05748C103.911 8.05748 104.045 8.05748 104.199 8.07666C104.352 8.07666 104.525 8.09585 104.736 8.11503V4.89205C104.601 4.89205 104.506 4.87286 104.467 4.87286C104.41 4.87286 104.352 4.87286 104.294 4.87286Z" fill="white"/>
<path d="M92.6687 14.043C92.5344 14.2349 92.4001 14.3883 92.2275 14.5226C91.7862 14.8871 91.1723 15.0022 90.4625 15.0022C89.791 15.0022 89.2539 14.9063 88.7743 14.5994C87.9877 14.1198 87.5465 13.2948 87.4889 12.0862H96.2562C96.2754 11.0503 96.237 10.2445 96.1603 9.70734C96.0068 8.7673 95.6998 7.94237 95.201 7.21336C94.6639 6.40762 93.9541 5.8129 93.1291 5.42921C92.285 5.06471 91.345 4.87286 90.309 4.87286C88.544 4.87286 87.1052 5.42921 86.0117 6.54191C84.899 7.6546 84.3618 9.24691 84.3618 11.338C84.3618 13.5634 84.9757 15.1749 86.2035 16.1533C87.4313 17.1317 88.8318 17.6305 90.4433 17.6305C92.3809 17.6305 93.8965 17.055 94.9708 15.8847C95.5464 15.2708 95.9109 14.6569 96.0643 14.0622L92.6687 14.043ZM88.4098 8.13422C88.851 7.67379 89.4841 7.44358 90.2898 7.44358C91.038 7.44358 91.6519 7.65461 92.1507 8.09585C92.6495 8.51791 92.9373 9.17018 92.9948 9.99511H87.5848C87.6999 9.22773 87.9685 8.59464 88.4098 8.13422Z" fill="white"/>
<path d="M83.0573 17.3044H80.1604V10.0143C80.1604 9.34284 79.9494 7.76971 78.031 7.76971C76.7648 7.76971 75.8439 8.69057 75.8439 10.0143V17.3044H72.9471V10.0143C72.9471 9.34284 72.7553 7.76971 70.8368 7.76971C69.5514 7.76971 68.6498 8.69057 68.6498 10.0143V17.3044H65.7529V10.1102C65.7529 7.09826 67.7481 4.83449 70.8368 4.83449C72.3716 4.83449 73.6185 5.48676 74.4243 6.50354C75.2876 5.46758 76.5538 4.83449 78.0118 4.83449C81.1772 4.83449 83.0381 7.02152 83.0381 10.1102L83.0573 17.3044Z" fill="white"/>
<path d="M141.225 1.05516C141.225 1.05516 138.04 0.709839 138.04 3.28055V6.6762C137.695 6.10067 137.234 5.65942 136.659 5.35247C136.102 5.02634 135.45 4.87286 134.721 4.87286C133.148 4.87286 131.882 5.46758 130.942 6.63783C130.002 7.80808 129.522 9.5155 129.522 11.5682C129.522 13.3524 130.002 14.8104 130.961 15.9423C131.92 17.0742 133.8 17.573 135.469 17.573C141.301 17.573 141.225 12.5658 141.225 12.5658V1.05516ZM137.426 13.9855C136.966 14.6569 136.294 14.9831 135.392 14.9831C134.51 14.9831 133.839 14.6569 133.397 13.9855C132.956 13.314 132.745 12.3548 132.745 11.2421C132.745 10.2061 132.956 9.34284 133.397 8.6522C133.819 7.96156 134.51 7.61624 135.412 7.61624C136.006 7.61624 136.544 7.80808 137.004 8.19177C137.752 8.82486 138.117 9.95674 138.117 11.4339C138.117 12.4699 137.886 13.3332 137.426 13.9855Z" fill="white"/>
<path d="M88.8894 37.4096C88.8894 37.8317 88.7359 38.1962 88.429 38.5032C88.122 38.8101 87.7383 38.9636 87.3163 38.9636H85.7432V27.9709C85.7432 25.8414 86.4722 24.4985 87.6424 23.5777C88.429 22.9829 89.5992 22.4074 91.7863 22.4074C93.2635 22.4074 94.9901 22.9829 95.9301 24.1148C96.9852 25.4002 97.4073 26.8198 97.4073 28.6999C97.4073 30.6375 96.9469 32.1915 96.0068 33.3809C95.086 34.5512 93.8774 35.1267 92.4194 35.1267C91.652 35.1267 90.9613 34.9924 90.3666 34.7238C89.7527 34.4169 89.2539 33.9373 88.8702 33.3042L88.8894 37.4096ZM94.1843 28.8342C94.1843 27.6448 93.9541 26.7239 93.4937 26.0716C93.0333 25.4385 92.3618 25.1124 91.4985 25.1124C90.6544 25.1124 90.0021 25.4385 89.5417 26.0716C89.1004 26.6472 88.8894 27.568 88.8894 28.8342C88.8894 30.0044 89.1196 30.8677 89.5801 31.4433C90.0405 32.0955 90.7119 32.4025 91.5752 32.4025C92.381 32.4025 93.0141 32.0764 93.4745 31.4433C93.9541 30.8102 94.1843 29.9469 94.1843 28.8342Z" fill="white"/>
<path d="M118.376 34.1099V33.3234C117.82 34.1867 117.091 34.7046 116.151 34.9348C115.23 35.1459 114.29 35.0691 113.388 34.7046C112.467 34.3401 111.681 33.6495 111.028 32.6711C110.376 31.6735 110.05 30.3689 110.05 28.7383C110.05 26.839 110.491 25.3043 111.354 24.134C112.218 22.9638 113.618 22.4266 115.537 22.369C117.436 22.3115 118.529 22.7527 119.604 23.5585C120.774 24.4601 121.484 25.8222 121.484 27.9709V34.4361C121.484 36.4888 120.045 40.3065 115.537 39.9804C112.736 39.7693 111.201 38.6374 110.318 36.0284H113.657C113.906 36.4504 114.27 36.7766 114.769 37.0068C115.268 37.237 115.767 37.2945 116.266 37.1986C116.764 37.0835 117.225 36.7957 117.647 36.2969C118.069 35.8365 118.318 35.0883 118.376 34.1099ZM113.158 28.8342C113.158 30.9445 113.772 32.1147 114.98 32.3449C116.189 32.5752 117.091 32.2874 117.685 31.5008C117.954 31.1747 118.165 30.6375 118.28 29.9277C118.395 29.2179 118.414 28.4889 118.299 27.7982C118.203 27.0884 117.935 26.4745 117.551 25.9182C117.148 25.3618 116.573 25.0932 115.805 25.0932C114.769 25.0932 114.079 25.4769 113.695 26.2443C113.35 26.9925 113.158 27.8558 113.158 28.8342Z" fill="white"/>
<path d="M107.345 23.2515C106.309 22.7335 105.139 22.465 103.815 22.465C101.781 22.465 100.343 23.0021 99.4984 24.0573C98.9804 24.7287 98.6735 25.6112 98.6159 26.6664H101.666C101.743 26.2059 101.896 25.8222 102.107 25.5537C102.414 25.1892 102.952 24.9973 103.7 24.9973C104.371 24.9973 104.889 25.0932 105.235 25.2851C105.58 25.4769 105.753 25.8222 105.753 26.3018C105.753 26.7047 105.522 27.0117 105.081 27.2035C104.832 27.3186 104.41 27.4145 103.815 27.4721L102.741 27.6064C101.513 27.7599 100.592 28.0284 99.9588 28.3738C98.8078 29.0452 98.2322 30.1196 98.2322 31.5968C98.2322 32.7478 98.5967 33.6303 99.3066 34.2442C100.016 34.8581 100.937 35.1267 102.031 35.1842C108.918 35.4912 108.841 31.5584 108.899 30.7335V26.2059C108.899 24.7479 108.381 23.7695 107.345 23.2515ZM105.753 30.1196C105.733 31.1747 105.426 31.9037 104.851 32.3066C104.275 32.7094 103.642 32.9013 102.952 32.9013C102.51 32.9013 102.146 32.7862 101.839 32.5368C101.532 32.3066 101.378 31.9037 101.378 31.3665C101.378 30.7718 101.628 30.3114 102.127 30.0236C102.414 29.851 102.894 29.7167 103.585 29.6016L104.295 29.4673C104.659 29.3905 104.928 29.333 105.139 29.2563C105.35 29.1795 105.542 29.0836 105.753 28.9493V30.1196Z" fill="white"/>
<path d="M133.455 24.2491C132.438 22.9829 130.903 22.3499 128.831 22.3499C126.76 22.3499 125.225 22.9829 124.208 24.2491C123.191 25.5153 122.692 27.0117 122.692 28.7575C122.692 30.5224 123.191 32.038 124.208 33.285C125.225 34.532 126.76 35.1651 128.831 35.1651C130.903 35.1651 132.438 34.532 133.455 33.285C134.472 32.038 134.97 30.5224 134.97 28.7575C134.97 27.0117 134.472 25.5153 133.455 24.2491ZM130.942 31.5392C130.443 32.1915 129.752 32.5176 128.831 32.5176C127.911 32.5176 127.201 32.1915 126.702 31.5392C126.203 30.8869 125.954 29.9661 125.954 28.7575C125.954 27.5488 126.203 26.628 126.702 25.9757C127.201 25.3234 127.911 24.9973 128.831 24.9973C129.752 24.9973 130.462 25.3234 130.942 25.9757C131.441 26.628 131.69 27.5488 131.69 28.7575C131.671 29.9469 131.441 30.8869 130.942 31.5392Z" fill="white"/>
</svg>
